<svg xmlns="http://www.w3.org/2000/svg" viewBox="0 0 500 500" shape-rendering="geometricPrecision" text-rendering="geometricPrecision" image-rendering="optimizeQuality" fill-rule="evenodd" clip-rule="evenodd"><defs><linearGradient id="c" gradientUnits="userSpaceOnUse" x1="250" y1="452.63" x2="250" y2="190.46"><stop offset="0" stop-color="#c82800"/><stop offset="1" stop-color="#f30"/></linearGradient><linearGradient id="a" gradientUnits="userSpaceOnUse" x1="249.999" y1="447.697" x2="249.999" y2="62.301"><stop offset="0" stop-color="#921d00"/><stop offset="1" stop-color="#f30"/></linearGradient><linearGradient id="b" gradientUnits="userSpaceOnUse" x1="249.998" y1="73.702" x2="249.998" y2="211.3"><stop offset="0" stop-color="#db2c00"/><stop offset="1" stop-color="#ff6b46"/></linearGradient></defs><path fill="url(#a)" stroke="#801a00" stroke-width="5" d="M480 370L370 480 250 360 130 480 20 370l120-120L20 130 130 20l120 120L370 20l110 110-120 120z"/><path fill="url(#b)" d="M370 42l88 88-120 120H162L42 130l88-88 120 120z"/><path d="M375 212l-37 38 120 120-88 88-120-120-120 120-88-88 120-120-37-38c38-17 80-27 125-27s87 10 125 27z" fill="url(#c)"/></svg>